<svg width="1280" height="720" xmlns="http://www.w3.org/2000/svg" xmlns:xlink="http://www.w3.org/1999/xlink" overflow="hidden"><defs><clipPath id="clip0"><rect x="0" y="0" width="1280" height="720"/></clipPath><linearGradient x1="112.669" y1="-32.204" x2="586.331" y2="788.204" gradientUnits="userSpaceOnUse" spreadMethod="reflect" id="fill1"><stop offset="0" stop-color="#0D2044"/><stop offset="0.01" stop-color="#0D2044"/><stop offset="1" stop-color="#1B4679"/></linearGradient><linearGradient x1="680.132" y1="-84.9467" x2="1133.87" y2="700.947" gradientUnits="userSpaceOnUse" spreadMethod="reflect" id="fill2"><stop offset="0" stop-color="#123763"/><stop offset="0.77" stop-color="#1B4679"/><stop offset="1" stop-color="#1B4679"/></linearGradient><linearGradient x1="38.7263" y1="-142.56" x2="573.663" y2="174.215" gradientUnits="userSpaceOnUse" spreadMethod="reflect" id="fill3"><stop offset="0" stop-color="#0F2A50"/><stop offset="0.3" stop-color="#0F2A50"/><stop offset="1" stop-color="#1B4679"/></linearGradient></defs><g clip-path="url(#clip0)"><rect x="0" y="0" width="1280" height="720" fill="#FFFFFF"/><path d="M-1.23593 34 535.064 211.233 701 615.474 204.103 722-2 721.236C-1.74528 492.157-1.49065 263.079-1.23593 34Z" fill="url(#fill1)" fill-rule="evenodd"/><path d="M623.227 0.000109367 533 208.389 697.349 616 1280.24 492.547C1280.49 328.365 1280.75 164.182 1281 0L623.227 0.000109367Z" fill="url(#fill2)" fill-rule="evenodd"/><path d="M625.41 0.183241 534.608 213.408-1.22302 35.9143-1.1297-0.106836 625.41 0.183241Z" fill="url(#fill3)" fill-rule="evenodd"/></g></svg>
