<?xml version="1.0" encoding="UTF-8" standalone="no"?>
<svg
   width="573.73315"
   height="293.03439"
   viewBox="0 0 573.73315 293.03439"
   fill="none"
   version="1.1"
   id="svg35"
   xmlns="http://www.w3.org/2000/svg"
   xmlns:svg="http://www.w3.org/2000/svg">
  <path
     d="m 541.3311,269.4934 c 0,-2.793 -1.241,-5.542 -5.541,-5.542 -4.567,0 -7.581,3.591 -7.581,6.694 v 14.453 h -2.217 v -22.61 h 2.217 v 3.724 h 0.088 c 1.33,-2.128 3.857,-4.167 8.025,-4.167 3.99,0 7.226,2.261 7.226,7.093 v 15.96 h -2.217 z"
     fill="#006cff"
     id="path1" />
  <path
     d="m 510.2171,285.6744 c -6.65,0 -10.684,-4.832 -10.684,-11.837 0,-7.004 4.034,-11.837 10.684,-11.837 6.606,0 10.64,4.833 10.64,11.837 0,7.005 -4.034,11.837 -10.64,11.837 z m -8.379,-11.837 c 0,5.586 2.838,9.931 8.379,9.931 5.498,0 8.291,-4.345 8.291,-9.931 0,-5.586 -2.793,-9.886 -8.291,-9.886 -5.541,0 -8.379,4.3 -8.379,9.886 z"
     fill="#006cff"
     id="path2" />
  <path
     d="m 492.1811,285.0984 v -22.61 h 2.217 v 22.61 z m -0.488,-27.221 v -3.192 h 3.192 v 3.192 z"
     fill="#006cff"
     id="path3" />
  <path
     d="m 478.7111,285.6304 c -6.118,0 -9.576,-3.458 -9.709,-7.758 h 2.349 c 0.178,3.413 2.616,5.852 7.448,5.852 4.301,0 6.207,-2.084 6.207,-4.7 0,-3.591 -3.502,-3.99 -7.005,-4.921 -4.344,-1.152 -8.157,-2.172 -8.157,-6.251 0,-3.546 2.793,-5.807 7.803,-5.807 5.896,0 8.423,3.147 8.866,6.605 h -2.305 c -0.488,-2.261 -1.906,-4.699 -6.561,-4.699 -3.281,0 -5.453,1.241 -5.453,3.724 0,3.015 3.147,3.547 6.871,4.478 4.522,1.197 8.291,2.349 8.291,6.783 0,4.034 -3.192,6.694 -8.645,6.694 z"
     fill="#006cff"
     id="path4" />
  <path
     d="m 462.0501,285.0984 v -22.61 h 2.217 v 22.61 z m -0.488,-27.221 v -3.192 h 3.192 v 3.192 z"
     fill="#006cff"
     id="path5" />
  <path
     d="m 447.7051,285.6744 c -6.384,0 -10.729,-4.788 -10.729,-11.837 0,-7.049 4.345,-11.792 10.729,-11.792 5.364,0 8.955,3.635 9.487,8.157 h -2.349 c -0.178,-2.571 -2.261,-6.251 -7.138,-6.251 -5.763,0 -8.423,4.877 -8.423,9.886 0,5.01 2.66,9.887 8.423,9.887 4.921,0 6.96,-3.636 7.138,-6.384 h 2.349 c -0.31,4.61 -4.078,8.334 -9.487,8.334 z"
     fill="#006cff"
     id="path6" />
  <path
     d="m 423.1741,285.6744 c -6.65,0 -10.551,-4.921 -10.551,-11.837 0,-7.226 4.212,-11.837 10.64,-11.837 6.34,0 9.886,4.567 9.886,10.64 0,0.488 0,1.02 -0.044,1.375 h -18.132 v 0.088 c 0,5.143 2.615,9.665 8.246,9.665 4.965,0 6.871,-3.414 7.315,-5.542 h 2.305 c -1.064,4.079 -4.123,7.448 -9.665,7.448 z m -8.201,-13.566 h 15.827 c 0,-4.389 -2.572,-8.201 -7.67,-8.201 -4.877,0 -7.936,3.724 -8.157,8.201 z"
     fill="#006cff"
     id="path7" />
  <path
     d="m 383.4261,285.0984 v -31.698 h 11.393 c 9,0 13.478,6.561 13.478,15.96 0,9.398 -4.655,15.738 -13.655,15.738 z m 2.438,-2.172 h 8.734 c 7.847,0 11.127,-5.719 11.127,-13.566 0,-7.847 -3.103,-13.788 -10.95,-13.788 h -8.911 z"
     fill="#006cff"
     id="path8" />
  <path
     d="m 365.3711,285.2314 c -3.281,0 -5.054,-1.064 -5.054,-5.763 v -15.029 h -3.325 v -1.951 h 3.325 v -7.537 h 2.217 v 7.537 h 4.788 v 1.951 h -4.788 v 14.984 c 0,3.192 0.665,3.902 3.147,3.902 0.665,0 1.02,-0.045 1.641,-0.133 v 1.862 c -0.798,0.133 -1.33,0.177 -1.951,0.177 z"
     fill="#006cff"
     id="path9" />
  <path
     d="m 342.4041,285.6304 c -4.433,0 -7.359,-2.438 -7.359,-6.162 0,-4.611 3.103,-6.207 8.955,-7.227 3.591,-0.576 6.606,-0.709 6.606,-3.945 0,-2.749 -1.951,-4.345 -5.542,-4.345 -4.478,0 -6.384,1.818 -6.606,5.187 h -2.349 c 0.221,-3.635 2.527,-7.138 8.999,-7.138 4.168,0 7.67,1.774 7.67,7.049 v 11.793 c 0,1.818 0.266,2.66 1.419,2.66 0.221,0 0.399,-0.044 0.709,-0.089 v 1.685 c -0.443,0.089 -0.887,0.133 -1.33,0.133 -1.818,0 -2.882,-0.754 -2.97,-3.635 h -0.089 c -1.64,2.704 -4.433,4.034 -8.113,4.034 z m -5.01,-6.473 c 0,2.971 1.774,4.567 5.365,4.567 5.054,0 7.847,-3.015 7.847,-6.828 v -4.876 c -0.665,1.152 -3.237,1.684 -6.207,2.083 -4.345,0.71 -7.005,1.862 -7.005,5.054 z"
     fill="#006cff"
     id="path10" />
  <path
     d="m 321.2431,285.6744 c -6.65,0 -10.552,-4.921 -10.552,-11.837 0,-7.226 4.212,-11.837 10.64,-11.837 6.34,0 9.887,4.567 9.887,10.64 0,0.488 0,1.02 -0.045,1.375 h -18.132 v 0.088 c 0,5.143 2.616,9.665 8.246,9.665 4.965,0 6.872,-3.414 7.315,-5.542 h 2.305 c -1.064,4.079 -4.123,7.448 -9.664,7.448 z m -8.202,-13.566 h 15.827 c 0,-4.389 -2.571,-8.201 -7.67,-8.201 -4.876,0 -7.935,3.724 -8.157,8.201 z"
     fill="#006cff"
     id="path11" />
  <path
     d="m 300.8381,271.8874 v 13.211 h -2.217 v -22.61 h 2.217 v 4.699 h 0.088 c 1.064,-2.97 3.458,-5.142 6.65,-5.142 0.754,0 1.286,0.044 1.818,0.133 v 2.128 c -0.399,-0.089 -1.02,-0.133 -1.33,-0.133 -3.99,0 -7.226,3.236 -7.226,7.714 z"
     fill="#006cff"
     id="path12" />
  <path
     d="m 279.0441,285.6304 c -9.354,0 -14.32,-7.005 -14.32,-16.359 0,-9.221 5.453,-16.403 14.719,-16.403 7.138,0 11.615,3.857 12.724,9.797 h -2.483 c -0.975,-4.699 -4.877,-7.625 -10.241,-7.625 -8.335,0 -12.147,7.005 -12.147,14.231 0,7.404 3.325,14.187 11.748,14.187 6.694,0 11.216,-4.877 11.216,-12.192 h -10.728 v -2.172 h 13.167 v 16.004 h -1.774 l -0.62,-6.827 h -0.089 c -1.596,4.211 -5.187,7.359 -11.172,7.359 z"
     fill="#006cff"
     id="path13" />
  <path
     d="m 235.7331,293.0344 c -0.621,0 -1.109,-0.045 -1.995,-0.178 v -1.906 c 0.62,0.089 0.975,0.133 1.773,0.133 2.35,0 3.813,-1.552 5.276,-6.029 l -9.133,-22.566 h 2.483 l 7.714,19.684 h 0.044 l 7.448,-19.684 h 2.35 l -9,23.231 c -2.172,5.586 -3.901,7.315 -6.96,7.315 z"
     fill="#006cff"
     id="path14" />
  <path
     d="m 221.5701,271.8874 v 13.211 h -2.217 v -22.61 h 2.217 v 4.699 h 0.089 c 1.064,-2.97 3.458,-5.142 6.65,-5.142 0.753,0 1.285,0.044 1.817,0.133 v 2.128 c -0.399,-0.089 -1.019,-0.133 -1.33,-0.133 -3.99,0 -7.226,3.236 -7.226,7.714 z"
     fill="#006cff"
     id="path15" />
  <path
     d="m 204.3111,285.6744 c -6.65,0 -10.551,-4.921 -10.551,-11.837 0,-7.226 4.211,-11.837 10.64,-11.837 6.339,0 9.886,4.567 9.886,10.64 0,0.488 0,1.02 -0.044,1.375 h -18.133 v 0.088 c 0,5.143 2.616,9.665 8.246,9.665 4.966,0 6.872,-3.414 7.315,-5.542 h 2.306 c -1.064,4.079 -4.123,7.448 -9.665,7.448 z m -8.202,-13.566 h 15.827 c 0,-4.389 -2.571,-8.201 -7.669,-8.201 -4.877,0 -7.936,3.724 -8.158,8.201 z"
     fill="#006cff"
     id="path16" />
  <path
     d="m 180.5361,285.0984 -8.468,-22.61 h 2.439 l 7.315,20.305 h 0.044 l 7.315,-20.305 h 2.35 l -8.424,22.61 z"
     fill="#006cff"
     id="path17" />
  <path
     d="m 149.3461,285.0984 v -31.698 h 21.014 v 2.172 h -18.576 v 11.793 h 16.802 v 2.128 h -16.802 v 13.433 h 19.063 v 2.172 z"
     fill="#006cff"
     id="path18" />
  <path
     d="m 120.9101,285.6304 c -5.364,0 -9.709,-4.389 -9.709,-11.837 0,-7.359 4.345,-11.748 9.753,-11.748 4.256,0 6.828,2.305 8.158,5.187 h 0.088 v -13.832 h 2.217 v 31.698 h -2.217 v -4.522 h -0.088 c -1.33,2.66 -3.902,5.054 -8.202,5.054 z m -7.359,-11.837 c 0,5.763 2.926,9.931 7.714,9.931 4.477,0 7.935,-3.813 7.935,-9.931 0,-6.029 -3.458,-9.842 -7.935,-9.842 -4.788,0 -7.714,4.167 -7.714,9.842 z"
     fill="#006cff"
     id="path19" />
  <path
     d="m 104.0361,269.4934 c 0,-2.793 -1.241,-5.542 -5.540999,-5.542 -4.567,0 -7.581,3.591 -7.581,6.694 v 14.453 h -2.217 v -22.61 h 2.217 v 3.724 h 0.088 c 1.33,-2.128 3.857,-4.167 8.025,-4.167 3.989999,0 7.225999,2.261 7.225999,7.093 v 15.96 h -2.217 z"
     fill="#006cff"
     id="path20" />
  <path
     d="m 80.103101,285.0984 v -22.61 h 2.216 v 22.61 z m -0.488,-27.221 v -3.192 h 3.192 v 3.192 z"
     fill="#006cff"
     id="path21" />
  <path
     d="m 71.697101,269.4934 c 0,-2.793 -1.242,-5.542 -5.542,-5.542 -4.566,0 -7.581,3.591 -7.581,6.694 v 14.453 h -2.217 v -31.698 h 2.217 v 12.812 h 0.089 c 1.33,-2.128 3.857,-4.167 8.024,-4.167 3.99,0 7.226,2.261 7.226,7.093 v 15.96 h -2.216 z"
     fill="#006cff"
     id="path22" />
  <path
     d="m 41.315101,285.6744 c -6.65,0 -10.551,-4.921 -10.551,-11.837 0,-7.226 4.211,-11.837 10.64,-11.837 6.339,0 9.886,4.567 9.886,10.64 0,0.488 0,1.02 -0.045,1.375 h -18.132 v 0.088 c 0,5.143 2.616,9.665 8.246,9.665 4.966,0 6.872,-3.414 7.315,-5.542 h 2.305 c -1.064,4.079 -4.122,7.448 -9.664,7.448 z m -8.202,-13.566 h 15.827 c 0,-4.389 -2.571,-8.201 -7.669,-8.201 -4.877,0 -7.936,3.724 -8.158,8.201 z"
     fill="#006cff"
     id="path23" />
  <path
     d="m 3.1250016,285.0984 v -31.698 H 15.626901 c 6.0294,0 9.6647,2.97 9.6647,7.935 0,3.636 -2.0393,5.808 -5.1427,6.828 v 0.088 c 3.724,0.798 6.4283,3.503 6.4283,7.892 0,6.073 -4.1673,8.955 -10.1966,8.955 z m 2.4383,-2.172 H 16.380601 c 5.0097,0 7.6253,-2.35 7.6253,-6.783 0,-3.99 -2.7043,-6.606 -6.916,-6.606 H 5.5633016 Z m 0,-15.561 H 16.380601 c 4.2117,0 6.3397,-2.394 6.3397,-5.852 0,-3.547 -2.261,-5.941 -6.7387,-5.941 H 5.5633016 Z"
     fill="#006cff"
     id="path24" />
  <path
     d="M 1.5890847e-6,104.1824 10.899901,35.141402 66.028101,1.837576e-6 106.8281,8.0858018 l 35.196,99.8275982 -32.705,33.275 z"
     fill="url(#paint0_radial_2420_20681)"
     id="path25"
     style="fill:url(#paint0_radial_2420_20681)" />
  <path
     d="m 215.8451,107.6744 c -24.985,0 -39.56,-19.227998 -39.56,-45.682998 0,-26.333 15.187,-45.561 41.887,-45.561 23.393,0 36.253,13.35 38.702,30.129 h -19.473 c -1.838,-7.839 -7.104,-14.575 -19.597,-14.575 -16.166,0 -22.168,13.595 -22.168,30.007 0,16.534 5.267,30.129 22.536,30.129 11.635,0 20.453,-7.594 20.576,-18.372 h -19.964 v -14.207 h 39.437 V 105.8374 h -13.349 l -2.695,-11.512998 h -0.245 c -4.899,8.328998 -13.105,13.349998 -26.087,13.349998 z"
     fill="#0a0a0a"
     id="path26" />
  <path
     d="m 309.2511,80.560402 v -36.988 h 16.779 V 106.1574 h -16.779 v -8.572998 h -0.245 c -3.307,5.388998 -9.553,10.410998 -20.576,10.410998 -11.88,0 -20.453,-7.471 -20.453,-21.800998 v -42.622 h 16.779 v 37.478 c 0,9.063 3.429,13.227 10.9,13.227 8.451,0 13.595,-4.776 13.595,-13.717 z"
     fill="#0a0a0a"
     id="path27" />
  <path
     d="m 410.1381,108.1174 c -20.208,0 -32.578,-13.471998 -32.578,-33.190998 0,-19.596 12.37,-33.436 32.823,-33.436 20.209,0 32.579,13.473 32.579,33.191 0,19.719 -12.37,33.435998 -32.824,33.435998 z m 0.123,-12.859998 c 10.288,0 15.554,-7.961 15.554,-20.453 0,-12.493 -5.266,-20.331 -15.554,-20.331 -10.288,0 -15.555,7.838 -15.555,20.331 0,12.492 5.267,20.453 15.555,20.453 z"
     fill="#0a0a0a"
     id="path28" />
  <path
     d="m 486.1851,41.945402 c 16.29,0 27.557,12.615 27.557,33.191 0,20.575 -11.267,33.189998 -27.557,33.189998 -9.43,0 -15.799,-4.654 -18.616,-8.572998 h -0.245 v 6.735998 h -16.779 V 18.919402 h 16.779 v 31.599 h 0.245 c 2.817,-3.674 9.186,-8.573 18.616,-8.573 z m -4.164,53.522 c 9.308,0 14.33,-8.084 14.33,-20.331 0,-12.248 -5.022,-20.209 -14.33,-20.209 -9.063,0 -14.452,7.349 -14.452,20.209 0,12.982 5.389,20.331 14.452,20.331 z"
     fill="#0a0a0a"
     id="path29" />
  <path
     d="m 538.9491,35.350402 h -17.392 v -16.431 h 17.392 z m -0.368,71.402998 h -16.779 V 45.137402 h 16.779 z"
     fill="#0a0a0a"
     id="path30" />
  <path
     d="m 351.8111,42.808402 h 22.014 l 0.099,15.664 h -21.672 l -0.099,47.366998 h -16.647 V 58.938402 Z"
     fill="#0a0a0a"
     id="path31" />
  <path
     d="m 571.2221,33.349402 c -1.674,1.653 -3.735,2.479 -6.185,2.479 -2.45,0 -4.512,-0.826 -6.185,-2.479 -1.674,-1.653 -2.511,-3.725 -2.511,-6.217 0,-2.491 0.837,-4.563 2.511,-6.216 1.673,-1.653 3.735,-2.479 6.185,-2.479 2.45,0 4.511,0.826 6.185,2.479 1.674,1.653 2.511,3.725 2.511,6.216 0,2.492 -0.837,4.564 -2.511,6.217 z m -6.185,1.15 c 2.062,0 3.759,-0.695 5.094,-2.085 1.334,-1.389 2.001,-3.15 2.001,-5.282 0,-2.108 -0.667,-3.856 -2.001,-5.246 -1.335,-1.389 -3.032,-2.084 -5.094,-2.084 -2.038,0 -3.736,0.695 -5.094,2.084 -1.334,1.39 -2.001,3.138 -2.001,5.246 0,2.108 0.667,3.869 2.001,5.282 1.358,1.39 3.056,2.085 5.094,2.085 z m -3.711,-2.839 v -9.199 h 4.511 c 0.946,0 1.735,0.24 2.365,0.719 0.655,0.479 0.983,1.138 0.983,1.976 0,1.102 -0.534,1.833 -1.601,2.192 v 0.072 c 0.727,0.215 1.188,0.766 1.382,1.653 0.049,0.287 0.085,0.647 0.109,1.078 0.025,0.407 0.061,0.718 0.11,0.934 0.048,0.216 0.121,0.347 0.218,0.395 v 0.18 h -2.474 c -0.097,-0.048 -0.231,-0.755 -0.4,-2.12 -0.073,-0.815 -0.558,-1.222 -1.456,-1.222 h -1.237 v 3.342 z m 2.51,-7.223 v 2.085 h 1.565 c 0.873,0 1.309,-0.348 1.309,-1.043 0,-0.694 -0.436,-1.042 -1.309,-1.042 z"
     fill="#0a0a0a"
     id="path32" />
  <defs
     id="defs35">
    <radialGradient
       id="paint0_radial_2420_20681"
       cx="0"
       cy="0"
       r="1"
       gradientUnits="userSpaceOnUse"
       gradientTransform="matrix(165.55655,181.07767,-126.05981,115.25456,-3.6250984,-26.776798)">
      <stop
         offset="0.0384616"
         stop-color="#CAEBEC"
         id="stop32" />
      <stop
         offset="0.298077"
         stop-color="#10ECD1"
         id="stop33" />
      <stop
         offset="0.677885"
         stop-color="#2158A4"
         id="stop34" />
      <stop
         offset="0.975962"
         stop-color="#1F063D"
         id="stop35" />
    </radialGradient>
  </defs>
</svg>
